<?xml version="1.0" encoding="UTF-8"?>
<svg width="14px" height="60px" viewBox="0 0 14 60" version="1.1" xmlns="http://www.w3.org/2000/svg" xmlns:xlink="http://www.w3.org/1999/xlink">
    <!-- Generator: Sketch 52.6 (67491) - http://www.bohemiancoding.com/sketch -->
    <title>check-box</title>
    <desc>Created with Sketch.</desc>
    <g id="Page-1" stroke="none" stroke-width="1" fill="none" fill-rule="evenodd">
        <g id="check-box">
            <path d="M13.9113869,1.85205399 L12.1803988,0.0923193158 C12.1222419,0.033216301 12.0432758,0 11.9609254,0 C11.8785749,0 11.7996089,0.033216301 11.741452,0.0923193158 L4.43063103,7.508344 C4.37247413,7.56744702 4.29350804,7.60066332 4.21115761,7.60066332 C4.12880718,7.60066332 4.04984109,7.56744702 3.99168419,7.508344 L2.26069606,5.74860933 C2.20253916,5.68950632 2.12357307,5.65629002 2.04122263,5.65629002 C1.9588722,5.65629002 1.87990611,5.68950632 1.82174921,5.74860933 L0.0907610809,7.508344 C-0.0302536936,7.63105403 -0.0302536936,7.82996699 0.0907610809,7.95267701 L3.99168419,11.9076807 C4.04984109,11.9667837 4.12880718,12 4.21115761,12 C4.29350804,12 4.37247413,11.9667837 4.43063103,11.9076807 L13.9113869,2.29198766 C14.0295377,2.16979812 14.0295377,1.97424352 13.9113869,1.85205399 Z" id="Path" fill="#CBC9C9"></path>
            <path d="M13.9113869,25.852054 L12.1803988,24.0923193 C12.1222419,24.0332163 12.0432758,24 11.9609254,24 C11.8785749,24 11.7996089,24.0332163 11.741452,24.0923193 L4.43063103,31.508344 C4.37247413,31.567447 4.29350804,31.6006633 4.21115761,31.6006633 C4.12880718,31.6006633 4.04984109,31.567447 3.99168419,31.508344 L2.26069606,29.7486093 C2.20253916,29.6895063 2.12357307,29.65629 2.04122263,29.65629 C1.9588722,29.65629 1.87990611,29.6895063 1.82174921,29.7486093 L0.0907610809,31.508344 C-0.0302536936,31.631054 -0.0302536936,31.829967 0.0907610809,31.952677 L3.99168419,35.9076807 C4.04984109,35.9667837 4.12880718,36 4.21115761,36 C4.29350804,36 4.37247413,35.9667837 4.43063103,35.9076807 L13.9113869,26.2919877 C14.0295377,26.1697981 14.0295377,25.9742435 13.9113869,25.852054 Z" id="Path" fill="#F5B33E"></path>
            <path d="M13.9113869,49.852054 L12.1803988,48.0923193 C12.1222419,48.0332163 12.0432758,48 11.9609254,48 C11.8785749,48 11.7996089,48.0332163 11.741452,48.0923193 L4.43063103,55.508344 C4.37247413,55.567447 4.29350804,55.6006633 4.21115761,55.6006633 C4.12880718,55.6006633 4.04984109,55.567447 3.99168419,55.508344 L2.26069606,53.7486093 C2.20253916,53.6895063 2.12357307,53.65629 2.04122263,53.65629 C1.9588722,53.65629 1.87990611,53.6895063 1.82174921,53.7486093 L0.0907610809,55.508344 C-0.0302536936,55.631054 -0.0302536936,55.829967 0.0907610809,55.952677 L3.99168419,59.9076807 C4.04984109,59.9667837 4.12880718,60 4.21115761,60 C4.29350804,60 4.37247413,59.9667837 4.43063103,59.9076807 L13.9113869,50.2919877 C14.0295377,50.1697981 14.0295377,49.9742435 13.9113869,49.852054 Z" id="Path" fill="#F5B33E"></path>
        </g>
    </g>
</svg>