<?xml version="1.0" encoding="UTF-8"?>
<svg width="81px" height="10px" viewBox="0 0 81 10" version="1.1" xmlns="http://www.w3.org/2000/svg" xmlns:xlink="http://www.w3.org/1999/xlink">
    <!-- Generator: Sketch 53.2 (72643) - https://sketchapp.com -->
    <title>iconbank</title>
    <desc>Created with Sketch.</desc>
    <g id="iconbank" stroke="none" stroke-width="1" fill="none" fill-rule="evenodd">
        <g id="Group-3" fill-rule="nonzero">
            <g id="jcb" transform="translate(67.000000, 0.000000)">
                <path d="M1.91703584,0 C0.834474426,0 0,0.693512304 0,1.901566 L0,5.34675615 C0.0902134515,5.77181208 0.541280709,6.08501119 1.03745469,6.08501119 C1.60128876,6.08501119 2.0072493,5.68232662 2.0072493,5.1901566 L2.0072493,3.44519016 L3.54087797,3.44519016 L3.54087797,5.16778523 C3.54087797,6.12975391 2.30044301,6.62192394 1.3983085,6.62192394 C0.879581152,6.62192394 0.383407169,6.46532438 0.0225533629,6.19686801 L0.0225533629,10 L2.45831655,10 C3.31534434,10 4.30769231,9.19463087 4.30769231,8.1655481 L4.30769231,0 L1.91703584,0 L1.91703584,0 Z" id="Path" fill="#1174CE"></path>
                <path d="M0,1.901566 L0,5.34675615 C0.0902134515,5.77181208 0.541280709,6.08501119 1.03745469,6.08501119 C1.60128876,6.08501119 2.0072493,5.68232662 2.0072493,5.1901566 L2.0072493,3.44519016 L3.54087797,3.44519016 L3.54087797,5.16778523 C3.54087797,6.12975391 2.30044301,6.62192394 1.3983085,6.62192394 C0.879581152,6.62192394 0.383407169,6.46532438 0.0225533629,6.19686801 L0.0225533629,10 L2.45831655,10 C3.31534434,10 4.30769231,9.19463087 4.30769231,8.1655481 L4.30769231,0" id="Path" fill="#0F549D"></path>
                <path d="M3.53684211,3.44660194 L3.53684211,5.168826 C3.53684211,6.13058749 2.28987854,6.62265151 1.38299595,6.62265151 C0.861538462,6.62265151 0.362753036,6.46608569 0,6.19768713 L0,10 L2.448583,10 C3.31012146,10 4.30769231,9.19480433 4.30769231,8.16594321" id="Path" fill="#02375E"></path>
                <path d="M10.4755245,6.01941748 L11.5272727,6.01941748 C11.7958042,6.01941748 12.041958,5.77564373 12.041958,5.50970874 C12.041958,5.24377374 11.7958042,5 11.5272727,5 L10.4755245,5 L10.4755245,6.01941748 Z" id="Path" fill="#146643"></path>
                <path d="M11.6421053,0 C10.5311741,0 9.71497976,0.693512304 9.71497976,1.87919463 L9.71497976,3.44519016 L12.5716599,3.44519016 C12.9797571,3.44519016 13.3198381,3.78076063 13.3198381,4.18344519 C13.3198381,4.58612975 12.9797571,4.92170022 12.5716599,4.92170022 C13.0251012,4.92170022 13.3878543,5.23489933 13.3878543,5.63758389 C13.3878543,6.04026846 13.0477733,6.35346756 12.5716599,6.35346756 L9.69230769,6.35346756 L9.69230769,10 L12.1408907,10 C13.0024291,10 14,9.19463087 14,8.1655481 L14,0 L11.6421053,0 L11.6421053,0 Z" id="Path" fill="#1BCC38"></path>
                <path d="M9.69230769,1.901566 L9.69230769,3.44519016 L12.5489879,3.44519016 C12.957085,3.44519016 13.297166,3.78076063 13.297166,4.18344519 C13.297166,4.58612975 12.957085,4.92170022 12.5489879,4.92170022 C13.0024291,4.92170022 13.3651822,5.23489933 13.3651822,5.63758389 C13.3651822,6.04026846 13.0251012,6.35346756 12.5489879,6.35346756 L9.69230769,6.35346756 L9.69230769,10 L12.1408907,10 C13.0024291,10 14,9.19463087 14,8.1655481 L14,0" id="Path" fill="#329947"></path>
                <g id="Group" transform="translate(9.692308, 3.737864)" fill="#146643">
                    <path d="M3.6048583,0.44170423 C3.6048583,0.844270111 3.26477733,1.17974168 2.85668016,1.17974168 C3.31012146,1.17974168 3.67287449,1.49284847 3.67287449,1.89541436 C3.67287449,2.29798024 3.33279352,2.61108703 2.85668016,2.61108703 L0,2.61108703 L0,6.25654473 L2.448583,6.25654473 C3.31012146,6.25654473 4.30769231,5.45141297 4.30769231,4.4226335" id="Path"></path>
                    <path d="M2.31255061,0.531163315 C2.31255061,0.262786061 2.06315789,0.0167735784 1.79109312,0.0167735784 L0.748178138,0.0167735784 L0.748178138,1.02318828 L1.81376518,1.02318828 C2.08582996,1.02318828 2.31255061,0.799540569 2.31255061,0.531163315 Z" id="Path"></path>
                </g>
                <path d="M6.77327935,0 C5.66234818,0 4.84615385,0.693512304 4.84615385,1.87919463 L4.84615385,3.80313199 C5.11821862,3.57941834 5.4582996,3.42281879 5.82105263,3.42281879 L8.40566802,3.42281879 L8.40566802,3.95973154 C7.79352227,3.82550336 7.20404858,3.75838926 6.90931174,3.75838926 C6.27449393,3.75838926 5.75303644,4.27293065 5.75303644,4.89932886 C5.75303644,5.52572707 6.27449393,6.04026846 6.90931174,6.04026846 C7.20404858,6.04026846 7.79352227,5.99552573 8.40566802,5.86129754 L8.40566802,6.35346756 L5.82105263,6.35346756 C5.4582996,6.35346756 5.09554656,6.21923937 4.84615385,5.97315436 L4.84615385,10 L7.29473684,10 C8.1562753,10 9.15384615,9.19463087 9.15384615,8.1655481 L9.15384615,0 L6.77327935,0 L6.77327935,0 Z" id="Path" fill="#E20E37"></path>
                <path d="M4.84615385,1.901566 L4.84615385,3.82550336 C5.11821862,3.60178971 5.4582996,3.44519016 5.82105263,3.44519016 L8.40566802,3.44519016 L8.40566802,3.98210291 C7.79352227,3.84787472 7.20404858,3.78076063 6.90931174,3.78076063 C6.27449393,3.78076063 5.75303644,4.29530201 5.75303644,4.92170022 C5.75303644,5.54809843 6.27449393,6.06263982 6.90931174,6.06263982 C7.20404858,6.06263982 7.79352227,6.01789709 8.40566802,5.8836689 L8.40566802,6.35346756 L5.82105263,6.35346756 C5.4582996,6.35346756 5.09554656,6.21923937 4.84615385,5.97315436 L4.84615385,10 L7.29473684,10 C8.1562753,10 9.15384615,9.19463087 9.15384615,8.1655481 L9.15384615,0" id="Path" fill="#B41F36"></path>
                <path d="M8.40566802,3.44660194 L8.40566802,3.98339905 C7.79352227,3.84919977 7.20404858,3.78210014 6.90931174,3.78210014 C6.27449393,3.78210014 5.75303644,4.2965307 5.75303644,4.922794 C5.75303644,5.54905729 6.27449393,6.06348786 6.90931174,6.06348786 C7.20404858,6.06348786 7.79352227,6.01875476 8.40566802,5.88455549 L8.40566802,6.35425296 L5.82105263,6.35425296 C5.4582996,6.35425296 5.09554656,6.22005368 4.84615385,5.97402167 L4.84615385,10 L7.29473684,10 C8.1562753,10 9.15384615,9.19480433 9.15384615,8.16594321" id="Path" fill="#720A1E"></path>
            </g>
            <g id="Group-2" transform="translate(42.000000, 0.000000)">
                <path d="M2.38464683,9.94502213 L2.38464683,9.28528792 C2.39249517,9.17304461 2.35123115,9.06288154 2.271382,8.98290336 C2.19153284,8.90292519 2.08082029,8.86086613 1.96748918,8.86745625 C1.81813722,8.85775242 1.6752935,8.92937933 1.59471001,9.05438094 C1.52124099,8.93310633 1.3867168,8.86138181 1.24412007,8.86745625 C1.11996213,8.86123572 1.00176497,8.92064342 0.933470762,9.02359335 L0.933470762,8.89384562 L0.702702703,8.89384562 L0.702702703,9.94502213 L0.935689686,9.94502213 L0.935689686,9.36665514 C0.925655532,9.29387438 0.948923086,9.22045333 0.99914283,9.16642796 C1.04936257,9.11240259 1.12129258,9.08341206 1.19530375,9.08736765 C1.34840948,9.08736765 1.42607181,9.18632779 1.42607181,9.36445602 L1.42607181,9.94942036 L1.65905879,9.94942036 L1.65905879,9.36665514 C1.64943638,9.29395715 1.67284621,9.22077398 1.72297285,9.16684878 C1.77309948,9.11292358 1.84477861,9.08381199 1.91867286,9.08736765 C2.07621644,9.08736765 2.15165984,9.18632779 2.15165984,9.36445602 L2.15165984,9.94942036 L2.38464683,9.94502213 Z M5.83174471,8.89384562 L5.45230877,8.89384562 L5.45230877,8.57497408 L5.21932179,8.57497408 L5.21932179,8.89384562 L5.00852404,8.89384562 L5.00852404,9.10276145 L5.22375963,9.10276145 L5.22375963,9.58656654 C5.22375963,9.8306682 5.31917335,9.97580973 5.59210096,9.97580973 C5.69406699,9.97614919 5.79405715,9.94794452 5.88056103,9.89444251 L5.81399332,9.69872136 C5.7521079,9.73530469 5.68187093,9.75573369 5.60985235,9.75809744 C5.49890617,9.75809744 5.45674662,9.68772579 5.45674662,9.58216831 L5.45674662,9.10276145 L5.83396364,9.10276145 L5.83174471,8.89384562 Z M7.79992999,8.86745625 C7.68531341,8.86411551 7.57803574,8.92318215 7.52034561,9.02139423 L7.52034561,8.89384562 L7.29179647,8.89384562 L7.29179647,9.94502213 L7.52256453,9.94502213 L7.52256453,9.35565957 C7.52256453,9.18192956 7.59800794,9.08516854 7.7444569,9.08516854 C7.7938151,9.08449941 7.84282345,9.09346634 7.88868693,9.11155791 L7.95969249,8.8916465 C7.90698994,8.87296107 7.85146504,8.86329378 7.79549214,8.86305802 L7.79992999,8.86745625 Z M4.82435338,8.97741195 C4.69372812,8.90044043 4.54354303,8.86227523 4.39166327,8.86745625 C4.1231735,8.86745625 3.94787854,8.99500486 3.94787854,9.2039207 C3.94787854,9.37545159 4.07657611,9.48100907 4.31400094,9.51399578 L4.42494712,9.52938958 C4.55142577,9.54698249 4.61133671,9.5799692 4.61133671,9.63934528 C4.61133671,9.7207125 4.52701761,9.76689389 4.36947403,9.76689389 C4.24275157,9.77052927 4.11848084,9.7317993 4.01666517,9.65693819 L3.90571899,9.83506643 C4.04014292,9.92808792 4.20114889,9.97588141 4.36503618,9.9714115 C4.67124765,9.9714115 4.84876154,9.82846909 4.84876154,9.62834971 C4.84876154,9.42823033 4.70896935,9.34686311 4.47820129,9.3138764 L4.36725511,9.2984826 C4.26740354,9.28528792 4.18752229,9.26549589 4.18752229,9.19512424 C4.18752229,9.12475259 4.26296569,9.07197386 4.38944434,9.07197386 C4.50634563,9.07331972 4.62094419,9.10436368 4.72228289,9.16213753 L4.82435338,8.97741195 Z M11.0051652,8.86745625 C10.8905486,8.86411551 10.7832709,8.92318215 10.7255808,9.02139423 L10.7255808,8.89384562 L10.4970317,8.89384562 L10.4970317,9.94502213 L10.7277997,9.94502213 L10.7277997,9.35565957 C10.7277997,9.18192956 10.8032431,9.08516854 10.9496921,9.08516854 C10.9990503,9.08449941 11.0480587,9.09346634 11.0939221,9.11155791 L11.1649277,8.8916465 C11.1122252,8.87296107 11.0567003,8.86329378 11.0007273,8.86305802 L11.0051652,8.86745625 Z M8.03180751,9.41723476 C8.02625773,9.56660242 8.0844742,9.71137315 8.19216732,9.81601205 C8.29986044,9.92065095 8.4470593,9.97546991 8.59763304,9.96701327 C8.73619135,9.97399984 8.87236175,9.92927647 8.97928791,9.84166377 L8.86834172,9.65693819 C8.7885682,9.71722813 8.69129189,9.75039243 8.59097627,9.7515001 C8.41409485,9.73731617 8.27784047,9.59091083 8.27784047,9.41503565 C8.27784047,9.23916047 8.41409485,9.09275512 8.59097627,9.0785712 C8.69129189,9.07967886 8.7885682,9.11284317 8.86834172,9.1731331 L8.97928791,8.98840752 C8.87236175,8.90079482 8.73619135,8.85607145 8.59763304,8.86305802 C8.4470593,8.85460138 8.29986044,8.90942034 8.19216732,9.01405924 C8.0844742,9.11869815 8.02625773,9.26346887 8.03180751,9.41283653 L8.03180751,9.41723476 Z M10.1930391,9.41723476 L10.1930391,8.89384562 L9.96227108,8.89384562 L9.96227108,9.02139423 C9.88276742,8.92000958 9.7589041,8.86272274 9.62943254,8.86745625 C9.32306311,8.86745625 9.07470162,9.11360047 9.07470162,9.41723476 C9.07470162,9.72086905 9.32306311,9.96701327 9.62943254,9.96701327 C9.7589041,9.97174678 9.88276742,9.91445994 9.96227108,9.81307529 L9.96227108,9.9406239 L10.1930391,9.9406239 L10.1930391,9.41723476 Z M9.33431569,9.41723476 C9.34457766,9.24467783 9.49213019,9.1118997 9.66642094,9.11838314 C9.84071169,9.12486658 9.97780602,9.26823328 9.97498728,9.4410671 C9.97216855,9.61390091 9.83047075,9.75280164 9.65605962,9.75369921 C9.56725154,9.75481287 9.48200995,9.71911571 9.42091609,9.65522667 C9.35982223,9.59133763 9.32842883,9.50506348 9.33431569,9.41723476 L9.33431569,9.41723476 Z M6.54956651,8.86745625 C6.24319709,8.87170713 5.99831266,9.12129737 6.00260183,9.42493166 C6.00689101,9.72856595 6.25872956,9.97126415 6.56509898,9.96701327 C6.72472162,9.97513338 6.88169561,9.92419021 7.00555532,9.82407086 L6.89460914,9.65473908 C6.80700182,9.72437168 6.69846759,9.76306423 6.58617875,9.76469478 C6.42756636,9.77821385 6.28691034,9.66415905 6.26887267,9.50739844 L7.05659057,9.50739844 C7.05659057,9.47880995 7.05659057,9.45022147 7.05659057,9.41943388 C7.05659057,9.08956677 6.85023067,8.86965536 6.5528949,8.86965536 L6.54956651,8.86745625 Z M6.54956651,9.07197386 C6.61930762,9.07050027 6.68678142,9.09655223 6.73713645,9.1443955 C6.78749148,9.19223878 6.81660046,9.25795195 6.81805627,9.32707109 L6.26332536,9.32707109 C6.27168276,9.1802608 6.39684667,9.06695848 6.54512867,9.07197386 L6.54956651,9.07197386 Z M12.3309721,9.41943388 L12.3309721,8.47161572 L12.1090797,8.47161572 L12.1090797,9.02139423 C12.029576,8.92000958 11.9057127,8.86272274 11.7762412,8.86745625 C11.4698717,8.86745625 11.2215103,9.11360047 11.2215103,9.41723476 C11.2215103,9.72086905 11.4698717,9.96701327 11.7762412,9.96701327 C11.9057127,9.97174678 12.029576,9.91445994 12.1090797,9.81307529 L12.1090797,9.9406239 L12.3309721,9.9406239 L12.3309721,9.41943388 Z M12.7159553,9.79218371 C12.7303798,9.79200856 12.7447002,9.79462299 12.7581149,9.79988061 C12.7708562,9.80503357 12.7825191,9.81249083 12.7925082,9.82187175 C12.8022569,9.83135228 12.8101556,9.84253532 12.8158069,9.85485846 C12.8271635,9.8808132 12.8271635,9.91027093 12.8158069,9.93622568 C12.8101556,9.94854882 12.8022569,9.95973185 12.7925082,9.96921239 C12.7825191,9.9785933 12.7708562,9.98605056 12.7581149,9.99120353 C12.7448327,9.99701197 12.7304731,10.000008 12.7159553,9.99999998 C12.6730247,9.99967928 12.6341339,9.97484012 12.6161038,9.93622568 C12.6048787,9.91024405 12.6048787,9.88084008 12.6161038,9.85485846 C12.6217551,9.84253532 12.6296537,9.83135228 12.6394025,9.82187175 C12.6493915,9.81249083 12.6610544,9.80503357 12.6737958,9.79988061 C12.6882465,9.79418362 12.7037443,9.79156127 12.7192837,9.79218371 L12.7159553,9.79218371 Z M12.7159553,9.97800884 C12.7270288,9.97807551 12.737992,9.97582751 12.7481297,9.9714115 C12.7576751,9.96718783 12.766332,9.9612194 12.7736473,9.95381859 C12.8024154,9.92271134 12.8024154,9.87497014 12.7736473,9.84386289 C12.7663495,9.83644166 12.7576884,9.83047034 12.7481297,9.82626997 C12.737982,9.8218851 12.7270255,9.81963847 12.7159553,9.81967263 C12.7048947,9.81973056 12.6939567,9.82197339 12.6837809,9.82626997 C12.6738129,9.83032075 12.6647606,9.83630179 12.6571539,9.84386289 C12.6283858,9.87497014 12.6283858,9.92271134 12.6571539,9.95381859 C12.6647792,9.9613571 12.6738268,9.96733495 12.6837809,9.9714115 C12.6949743,9.97619545 12.707102,9.9784491 12.7192837,9.97800884 L12.7159553,9.97800884 Z M12.7226121,9.84716156 C12.7329691,9.84666378 12.743175,9.84977602 12.7514581,9.85595801 C12.7583481,9.86160929 12.7620658,9.87020649 12.7614433,9.87904871 C12.7617653,9.88643281 12.7589481,9.89361235 12.753677,9.89884074 C12.7472464,9.90462946 12.7390429,9.90811387 12.7303783,9.90873675 L12.7625527,9.94502213 L12.7370351,9.94502213 L12.7070796,9.90873675 L12.6970945,9.90873675 L12.6970945,9.94502213 L12.6760147,9.94502213 L12.6760147,9.84826111 L12.7226121,9.84716156 Z M12.6982039,9.86585403 L12.6982039,9.8922434 L12.7226121,9.8922434 C12.7269555,9.89352678 12.7315823,9.89352678 12.7359256,9.8922434 C12.7375081,9.88913113 12.7375081,9.88545965 12.7359256,9.88234738 C12.7375081,9.87923511 12.7375081,9.87556364 12.7359256,9.87245137 C12.7315823,9.87116798 12.7269555,9.87116798 12.7226121,9.87245137 L12.6982039,9.86585403 Z M11.4777959,9.41943388 C11.4880579,9.24687694 11.6356104,9.11409881 11.8099012,9.12058225 C11.9841919,9.12706569 12.1212863,9.27043239 12.1184675,9.44326621 C12.1156488,9.61610003 11.973951,9.75500075 11.7995399,9.75589832 C11.7107318,9.75701199 11.6254902,9.72131483 11.5643963,9.65742579 C11.5033025,9.59353675 11.4719091,9.50726259 11.4777959,9.41943388 L11.4777959,9.41943388 Z M3.68604555,9.41943388 L3.68604555,8.89384562 L3.45527749,8.89384562 L3.45527749,9.02139423 C3.37577382,8.92000958 3.2519105,8.86272274 3.12243894,8.86745625 C2.81606952,8.86745625 2.56770803,9.11360047 2.56770803,9.41723476 C2.56770803,9.72086905 2.81606952,9.96701327 3.12243894,9.96701327 C3.2519105,9.97174678 3.37577382,9.91445994 3.45527749,9.81307529 L3.45527749,9.9406239 L3.68604555,9.9406239 L3.68604555,9.41943388 Z M2.82732209,9.41943388 C2.83758406,9.24687694 2.98513659,9.11409881 3.15942735,9.12058225 C3.3337181,9.12706569 3.47081242,9.27043239 3.46799369,9.44326621 C3.46517495,9.61610003 3.32347715,9.75500075 3.14906602,9.75589832 C3.05987522,9.75763368 2.9740402,9.72220866 2.91245428,9.65824617 C2.85086837,9.59428368 2.81918023,9.50765036 2.82510317,9.41943388 L2.82732209,9.41943388 Z" id="Shape" fill="#171614"></path>
                <g id="_Group_">
                    <rect id="Rectangle" fill="#FF5F00" x="4.73888889" y="0.868726446" width="3.5" height="6.26479033"></rect>
                    <path d="M4.96111111,4.00167494 C4.95980252,2.77898311 5.52320487,1.62363803 6.48888889,0.868726446 C4.84886559,-0.414990979 2.49372637,-0.228006435 1.07859977,1.29827237 C-0.336526836,2.82455117 -0.336526836,5.17769206 1.07859977,6.70397086 C2.49372637,8.23024966 4.84886559,8.4172342 6.48888889,7.13351678 C5.52351208,6.37884485 4.96014415,5.22397842 4.96111111,4.00167494 L4.96111111,4.00167494 Z" id="_Path_" fill="#EB001B"></path>
                    <path d="M12.9611111,4.00167494 C12.9610754,5.52702361 12.0866023,6.91845446 10.7090839,7.58502146 C9.33156552,8.25158846 7.69284331,8.076267 6.48888889,7.13351678 C7.45384447,6.37820416 8.01725481,5.22349127 8.01725481,4.00112161 C8.01725481,2.77875196 7.45384447,1.62403907 6.48888889,0.868726446 C7.69284331,-0.0740237738 9.33156552,-0.249345231 10.7090839,0.417221769 C12.0866023,1.08378877 12.9610754,2.47521961 12.9611111,4.00056828 L12.9611111,4.00167494 Z" id="Path" fill="#F79E1B"></path>
                    <path d="M12.7055182,6.93996218 L12.7055182,6.42179661 L12.8404013,6.42179661 L12.8404013,6.31458994 L12.4988889,6.31458994 L12.4988889,6.42179661 L12.6452514,6.42179661 L12.6452514,6.93996218 L12.7055182,6.93996218 Z M13.3684541,6.93996218 L13.3684541,6.31458994 L13.2651394,6.31458994 L13.1446056,6.7612844 L13.0240718,6.31458994 L12.9322366,6.31458994 L12.9322366,6.93996218 L13.0068527,6.93996218 L13.0068527,6.470933 L13.118777,6.87742496 L13.196263,6.87742496 L13.3081872,6.470933 L13.3081872,6.94442913 L13.3684541,6.93996218 Z" id="Shape" fill="#F79E1B"></path>
                </g>
            </g>
            <g id="visa">
                <polygon id="Path" fill="#3C58BF" points="12.1 9.7012987 13.7761905 0.350649351 16.3952381 0.350649351 14.7714286 9.7012987"></polygon>
                <polygon id="Path" fill="#293688" points="12.1 9.7012987 14.247619 0.350649351 16.3952381 0.350649351 14.7714286 9.7012987"></polygon>
                <path d="M24.252381,0.454545455 C23.7285714,0.246753247 22.8904762,0.038961039 21.8428571,0.038961039 C19.2238095,0.038961039 17.3380952,1.33766234 17.3380952,3.20779221 C17.3380952,4.61038961 18.647619,5.33766234 19.6952381,5.80519481 C20.7428571,6.27272727 21.0571429,6.58441558 21.0571429,7 C21.0571429,7.62337662 20.2190476,7.93506494 19.4857143,7.93506494 C18.4380952,7.93506494 17.8619048,7.77922078 16.9714286,7.41558442 L16.6047619,7.25974026 L16.2380952,9.38961039 C16.8666667,9.64935065 18.0190476,9.90909091 19.2238095,9.90909091 C22,9.90909091 23.8333333,8.61038961 23.8333333,6.63636364 C23.8333333,5.54545455 23.152381,4.71428571 21.5809524,4.03896104 C20.6380952,3.57142857 20.0619048,3.31168831 20.0619048,2.84415584 C20.0619048,2.42857143 20.5333333,2.01298701 21.5809524,2.01298701 C22.4714286,2.01298701 23.1,2.16883117 23.5714286,2.37662338 L23.8333333,2.48051948 L24.252381,0.454545455 L24.252381,0.454545455 Z" id="Path" fill="#3C58BF"></path>
                <path d="M24.252381,0.454545455 C23.7285714,0.246753247 22.8904762,0.038961039 21.8428571,0.038961039 C19.2238095,0.038961039 17.8095238,1.33766234 17.8095238,3.20779221 C17.8095238,4.61038961 18.647619,5.33766234 19.6952381,5.80519481 C20.7428571,6.27272727 21.0571429,6.58441558 21.0571429,7 C21.0571429,7.62337662 20.2190476,7.93506494 19.4857143,7.93506494 C18.4380952,7.93506494 17.8619048,7.77922078 16.9714286,7.41558442 L16.6047619,7.25974026 L16.2380952,9.38961039 C16.8666667,9.64935065 18.0190476,9.90909091 19.2238095,9.90909091 C22,9.90909091 23.8333333,8.61038961 23.8333333,6.63636364 C23.8333333,5.54545455 23.152381,4.71428571 21.5809524,4.03896104 C20.6380952,3.57142857 20.0619048,3.31168831 20.0619048,2.84415584 C20.0619048,2.42857143 20.5333333,2.01298701 21.5809524,2.01298701 C22.4714286,2.01298701 23.1,2.16883117 23.5714286,2.37662338 L23.8333333,2.48051948 L24.252381,0.454545455 L24.252381,0.454545455 Z" id="Path" fill="#293688"></path>
                <path d="M28.7571429,0.350649351 C28.1285714,0.350649351 27.6571429,0.402597403 27.3952381,1.02597403 L23.4666667,9.7012987 L26.2952381,9.7012987 L26.8190476,8.14285714 L30.1714286,8.14285714 L30.4857143,9.7012987 L33,9.7012987 L30.8,0.350649351 L28.7571429,0.350649351 Z M27.552381,6.58441558 C27.7095238,6.11688312 28.6,3.83116883 28.6,3.83116883 C28.6,3.83116883 28.8095238,3.25974026 28.9666667,2.8961039 L29.1238095,3.77922078 C29.1238095,3.77922078 29.647619,6.11688312 29.752381,6.63636364 L27.552381,6.63636364 L27.552381,6.58441558 Z" id="Shape" fill="#3C58BF"></path>
                <path d="M29.3857143,0.350649351 C28.7571429,0.350649351 28.2857143,0.402597403 28.0238095,1.02597403 L23.4666667,9.7012987 L26.2952381,9.7012987 L26.8190476,8.14285714 L30.1714286,8.14285714 L30.4857143,9.7012987 L33,9.7012987 L30.8,0.350649351 L29.3857143,0.350649351 Z M27.552381,6.58441558 C27.7619048,6.06493506 28.6,3.83116883 28.6,3.83116883 C28.6,3.83116883 28.8095238,3.25974026 28.9666667,2.8961039 L29.1238095,3.77922078 C29.1238095,3.77922078 29.647619,6.11688312 29.752381,6.63636364 L27.552381,6.63636364 L27.552381,6.58441558 Z" id="Shape" fill="#293688"></path>
                <path d="M7.28095238,6.8961039 L7.01904762,5.54545455 C6.54761905,3.98701299 5.02857143,2.27272727 3.35238095,1.44155844 L5.70952381,9.75324675 L8.53809524,9.75324675 L12.7809524,0.402597403 L9.95238095,0.402597403 L7.28095238,6.8961039 Z" id="Path" fill="#3C58BF"></path>
                <path d="M7.28095238,6.8961039 L7.01904762,5.54545455 C6.54761905,3.98701299 5.02857143,2.27272727 3.35238095,1.44155844 L5.70952381,9.75324675 L8.53809524,9.75324675 L12.7809524,0.402597403 L10.4761905,0.402597403 L7.28095238,6.8961039 Z" id="Path" fill="#293688"></path>
                <path d="M0,0.350649351 L0.471428571,0.454545455 C3.82380952,1.23376623 6.12857143,3.20779221 7.01904762,5.54545455 L6.07619048,1.12987013 C5.91904762,0.506493506 5.44761905,0.350649351 4.87142857,0.350649351 L0,0.350649351 L0,0.350649351 Z" id="Path" fill="#FFBC00"></path>
                <path d="M0,0.350649351 L0,0.350649351 C3.35238095,1.12987013 6.12857143,3.15584416 7.01904762,5.49350649 L6.12857143,1.80519481 C5.97142857,1.18181818 5.44761905,0.818181818 4.87142857,0.818181818 L0,0.350649351 Z" id="Path" fill="#F7981D"></path>
                <path d="M0,0.350649351 L0,0.350649351 C3.35238095,1.12987013 6.12857143,3.15584416 7.01904762,5.49350649 L6.39047619,3.46753247 C6.23333333,2.84415584 6.02380952,2.22077922 5.29047619,1.96103896 L0,0.350649351 Z" id="Path" fill="#ED7C00"></path>
                <g id="Group" transform="translate(3.404762, 1.363636)" fill="#051244">
                    <path d="M6.4952381,5.22077922 L4.71428571,3.45454545 L3.87619048,5.42857143 L3.66666667,4.12987013 C3.1952381,2.57142857 1.67619048,0.857142857 0,0.025974026 L2.35714286,8.33766234 L5.18571429,8.33766234 L6.4952381,5.22077922 Z" id="Path"></path>
                    <polygon id="Path" points="11.3666667 8.33766234 9.11428571 6.05194805 8.6952381 8.33766234"></polygon>
                    <path d="M17.3904762,5.11688312 L17.3904762,5.11688312 C17.6,5.32467532 17.7047619,5.48051948 17.652381,5.68831169 C17.652381,6.31168831 16.8142857,6.62337662 16.0809524,6.62337662 C15.0333333,6.62337662 14.4571429,6.46753247 13.5666667,6.1038961 L13.2,5.94805195 L12.8333333,8.07792208 C13.4619048,8.33766234 14.6142857,8.5974026 15.8190476,8.5974026 C17.4952381,8.5974026 18.8571429,8.12987013 19.6428571,7.2987013 L17.3904762,5.11688312 Z" id="Path"></path>
                    <path d="M20.4285714,8.33766234 L22.8904762,8.33766234 L23.4142857,6.77922078 L26.7666667,6.77922078 L27.0809524,8.33766234 L29.5952381,8.33766234 L28.7047619,4.54545455 L25.5619048,1.53246753 L25.7190476,2.36363636 C25.7190476,2.36363636 26.2428571,4.7012987 26.347619,5.22077922 L24.147619,5.22077922 C24.3571429,4.7012987 25.1952381,2.46753247 25.1952381,2.46753247 C25.1952381,2.46753247 25.4047619,1.8961039 25.5619048,1.53246753" id="Path"></path>
                </g>
            </g>
        </g>
    </g>
</svg>