<svg xmlns="http://www.w3.org/2000/svg" width="13" height="18" viewBox="0 0 13 18">
    <g fill="none" fill-rule="evenodd" transform="translate(1 1)">
        <ellipse cx="5.5" cy="16" fill="#C6C6C6" rx="3.5" ry="1"/>
        <path fill="#F5B440" stroke="#FFF" stroke-width=".81" d="M.13 6.231A4.796 4.796 0 0 1 0 5.118C0 2.292 2.462 0 5.5 0S11 2.292 11 5.118c0 .943-.274 1.826-.751 2.584-1.73 4.985-3.348 7.416-4.856 7.294C3.744 14.862 1.946 11.94 0 6.23h.13zM5.5 7.566c1.453 0 2.63-1.096 2.63-2.448 0-1.352-1.177-2.448-2.63-2.448-1.453 0-2.63 1.096-2.63 2.448 0 1.352 1.177 2.448 2.63 2.448z"/>
    </g>
</svg>
